<svg width="116" height="116" viewBox="0 0 116 116" fill="none" xmlns="http://www.w3.org/2000/svg">
<circle cx="58" cy="58" r="58" fill="#09040E"/>
<path d="M46.64 30.136C55.344 30.136 62.224 31.352 67.28 33.784C72.4 36.152 76.272 38.808 78.896 41.752C81.008 44.184 82.736 47 84.08 50.2C85.424 53.336 86.096 57.112 86.096 61.528C86.096 64.792 85.36 68.216 83.888 71.8C82.416 75.32 80.496 78.168 78.128 80.344C75.632 82.712 73.264 84.632 71.024 86.104C68.848 87.576 65.872 88.792 62.096 89.752C58.384 90.648 53.648 91.096 47.888 91.096C43.536 91.096 39.6 90.616 36.08 89.656C32.56 88.632 30.8 86.936 30.8 84.568C30.8 83.608 31.216 82.872 32.048 82.36C32.944 81.784 33.904 81.496 34.928 81.496C35.504 81.496 35.888 81.528 36.08 81.592C36.528 77.368 36.752 72.888 36.752 68.152C36.752 62.84 36.624 58.456 36.368 55C36.112 51.48 35.76 47.992 35.312 44.536C35.248 44.088 35.088 42.84 34.832 40.792C34.64 38.744 34.544 36.664 34.544 34.552C34.544 33.208 35.216 32.088 36.56 31.192C37.904 30.232 39.28 29.752 40.688 29.752C41.52 29.752 42.64 29.816 44.048 29.944C45.2 30.072 46.064 30.136 46.64 30.136ZM45.392 82.072C46.928 82.328 48.944 82.456 51.44 82.456C55.664 82.456 59.664 81.592 63.44 79.864C67.216 78.072 70.256 75.608 72.56 72.472C74.864 69.272 76.016 65.592 76.016 61.432C76.016 57.08 75.248 53.368 73.712 50.296C72.176 47.224 69.808 44.696 66.608 42.712C64.24 41.24 61.328 40.184 57.872 39.544C54.416 38.84 50.256 38.488 45.392 38.488C45.392 40.024 45.488 41.944 45.68 44.248C45.68 45.016 45.744 46.36 45.872 48.28C46.256 55.704 46.448 61.688 46.448 66.232C46.448 72.824 46.096 78.104 45.392 82.072Z" fill="#E04F60"/>
</svg>
